<svg xmlns="http://www.w3.org/2000/svg" width="192" height="192" viewBox="0 0 192 192">
  <rect width="192" height="192" rx="42" fill="#1B2845"/>
  <rect x="52" y="36" width="114" height="120" rx="18" fill="#F7F8FC"/>
  <rect x="28" y="48" width="30" height="28" rx="0 10 10 0" fill="#5876A8"/>
  <rect x="28" y="80" width="30" height="28" rx="0 10 10 0" fill="#7690BE"/>
  <rect x="28" y="112" width="30" height="28" rx="0 10 10 0" fill="#94A8D0"/>
  <rect x="28" y="144" width="30" height="20" rx="0 10 10 0" fill="#B2C0DE"/>
  <rect x="74" y="64" width="18" height="18" rx="4" fill="none" stroke="#1B2845" stroke-width="3"/>
  <path d="M78 74 L82 78 L90 70" fill="none" stroke="#1B2845" stroke-width="3" stroke-linecap="round" stroke-linejoin="round"/>
  <rect x="98" y="68" width="54" height="8" rx="4" fill="#1B2845"/>
  <rect x="98" y="96" width="46" height="8" rx="4" fill="#1B2845" opacity=".35"/>
  <rect x="98" y="124" width="38" height="8" rx="4" fill="#1B2845" opacity=".35"/>
</svg>
